<?xml version="1.0" encoding="UTF-8"?> <svg xmlns="http://www.w3.org/2000/svg" id="bdg-logo" width="91.17" height="36.921" viewBox="0 0 91.17 36.921"><g id="Group_9" data-name="Group 9" transform="translate(0 2.541)"><path id="Path_25" data-name="Path 25" d="M213.414,412.131a13.8,13.8,0,0,0-16.448,2.2c-.817.8.436,2.048,1.252,1.251a11.869,11.869,0,1,1-3.455,8.367q-.039-5.31-.079-10.621a.886.886,0,0,0-1.771,0q.039,5.311.079,10.621a13.629,13.629,0,1,0,20.421-11.82Z" transform="translate(-192.914 -410.353)" fill="#fff"></path><path id="Path_26" data-name="Path 26" d="M215.777,419.026a9.908,9.908,0,1,0,2.918,7.023.886.886,0,0,0-1.77,0,8.143,8.143,0,1,1-2.4-5.772C215.349,421.064,216.6,419.815,215.777,419.026Z" transform="translate(-195.073 -412.451)" fill="#fff"></path><path id="Path_27" data-name="Path 27" d="M212.447,432.376c-1.036.47-.137,2,.893,1.528a6.447,6.447,0,1,0-5.154.016c1.032.458,1.934-1.067.893-1.529a4.8,4.8,0,0,1-2.989-4.949,4.685,4.685,0,1,1,6.356,4.934Z" transform="translate(-197.036 -414.407)" fill="#fff"></path></g><g id="Group_10" data-name="Group 10" transform="translate(36.115)"><path id="Path_28" data-name="Path 28" d="M326.125,424.448a.915.915,0,0,0-.914-.914.9.9,0,0,0-.36.075.913.913,0,0,0-.559.842c0,.01,0,.019,0,.029v2.36a9.368,9.368,0,0,0-.758-.855,8.486,8.486,0,1,0,0,12,9.2,9.2,0,0,0,.758-.856v3.714a6.729,6.729,0,0,1-1.361,4.122,6.282,6.282,0,0,1-3.538,2.45,6.635,6.635,0,0,1-7.317-2.788l0,0a.922.922,0,1,0-1.589.933h0l.015.022.005.008c.11.163.38.555.442.618a8.46,8.46,0,0,0,6.828,3.285,8.5,8.5,0,0,0,8.349-8.476V424.474C326.122,424.465,326.125,424.457,326.125,424.448Zm-4.548,12.818a6.041,6.041,0,0,1-3.143,1.306,6.563,6.563,0,0,1-5.592-1.9,6.642,6.642,0,0,1,0-9.391,6.564,6.564,0,0,1,5.589-1.9,6.045,6.045,0,0,1,3.141,1.3,6.669,6.669,0,0,1,.005,10.573Z" transform="translate(-271.069 -412.568)" fill="#fff"></path><path id="Path_29" data-name="Path 29" d="M263.9,419.785a8.114,8.114,0,0,0-5.036-2.392,8.361,8.361,0,0,0-4.258.641,8.273,8.273,0,0,0-3.266,2.508V407.272h0a.913.913,0,0,0-1.826,0h0v26.061h0a.913.913,0,0,0,1.826,0h0v-2.308a8.29,8.29,0,0,0,2.9,2.333,8.194,8.194,0,0,0,3.714.875,8.43,8.43,0,0,0,6.28-2.8,8.149,8.149,0,0,0,1.75-2.994,8.4,8.4,0,0,0,.369-3.636A8.171,8.171,0,0,0,263.9,419.785Zm-1.264,10.674a6.595,6.595,0,1,1,1.944-4.666A6.386,6.386,0,0,1,262.637,430.459Z" transform="translate(-249.514 -406.37)" fill="#fff"></path><path id="Path_30" data-name="Path 30" d="M294.956,407.284a.913.913,0,0,0-1.827-.013h0v13.273a8.506,8.506,0,0,0-6.63-3.208,8.447,8.447,0,1,0,0,16.895,8.5,8.5,0,0,0,6.63-3.208v2.309h0a.913.913,0,0,0,1.827-.015c0-.006,0-.011,0-.016v-26C294.954,407.295,294.956,407.289,294.956,407.284Zm-3.774,23.175a6.595,6.595,0,1,1,1.944-4.666A6.387,6.387,0,0,1,291.182,430.459Z" transform="translate(-259.845 -406.37)" fill="#fff"></path></g></svg> 