<svg xmlns="http://www.w3.org/2000/svg" xmlns:xlink="http://www.w3.org/1999/xlink" id="Layout" viewBox="0 0 1091.87 200"><defs><style> .cls-1 { fill: #fff; } .cls-1, .cls-2 { fill-rule: evenodd; } .cls-2 { fill: url(#linear-gradient); } .cls-3 { fill: #002a86; } </style><linearGradient id="linear-gradient" x1="202.14" y1="0" x2="202.14" y2="200" gradientUnits="userSpaceOnUse"><stop offset="0" stop-color="#00b8f1"></stop><stop offset=".02" stop-color="#00b5ef"></stop><stop offset=".31" stop-color="#0d90d8"></stop><stop offset=".58" stop-color="#1675c8"></stop><stop offset=".82" stop-color="#1c64be"></stop><stop offset="1" stop-color="#1e5fbb"></stop></linearGradient></defs><g><polyline class="cls-2" points="0 200 204.32 200 404.29 0 0 0 0 200"></polyline><path class="cls-1" d="M239.92,37.61l-39.79-.03v94.62l-34.76-94.62h-34.47l-29.68,79.13c-3.16-19.95-23.8-26.84-40.04-32.01-10.72-3.44-22.1-8.51-21.99-14.1.09-4.59,6.1-8.86,18.02-8.22,8.01.42,15.07,1.07,29.13,7.85l13.83-24.08c-12.83-6.53-30.56-10.65-45.08-10.67h-.08c-16.94,0-31.05,5.49-39.81,14.53-6.1,6.32-9.38,14.34-9.52,23.21-.22,12.21,4.26,20.87,13.66,27.78,7.95,5.83,18.11,9.6,27.06,12.38,11.05,3.42,20.07,6.4,19.96,12.75-.08,2.3-.96,4.46-2.62,6.21-2.75,2.84-6.98,3.91-12.83,4.01-11.27.24-19.63-1.52-32.95-9.39l-12.29,24.41c13.28,7.56,29,11.99,45.05,11.99l2.07-.03c13.97-.25,25.24-4.23,34.24-11.48.52-.41.98-.83,1.46-1.26l-3.99,10.66h36.15l6.07-18.45c6.35,2.17,13.58,3.37,21.25,3.37s14.51-1.15,20.74-3.19l5.85,18.26h58.96v-38.19h12.86c31.07,0,49.46-15.84,49.46-42.36,0-29.55-17.86-43.11-55.89-43.11ZM147.95,118.57c-4.64,0-9-.8-12.75-2.22l12.61-39.8h.24l12.39,39.91c-3.72,1.32-7.98,2.11-12.49,2.11ZM242.26,95.7h-8.77v-32.07h8.77c11.69,0,21.01,3.88,21.01,15.82s-9.32,16.25-21.01,16.25"></path></g><g><path class="cls-3" d="M402.78,36.13h84.89v20.23h-61.39v30.83h56.09v19.79h-56.09v33.39h65.02v20.23h-88.51V36.13Z"></path><path class="cls-3" d="M509.91,64.04h21.64v20.32h.35c4.51-13.96,14.13-22.26,28.53-22.26,13.34,0,22.79,6.89,26.15,22.26h.53c4.59-15.37,15.81-22.26,29.59-22.26,18.9,0,28.18,11.31,28.18,34.36v64.13h-22.35v-58.83c0-12.72-3.71-20.41-14.93-20.41s-19.08,8.66-19.08,24.74v54.5h-22.26v-58.83c0-12.72-3.8-20.41-15.02-20.41-11.84,0-18.99,8.66-18.99,24.74v54.5h-22.35v-96.55Z"></path><path class="cls-3" d="M662.78,134.27c0-20.76,16.96-30.48,42.05-30.48h17.49v-5.57c0-11.66-5.65-18.02-17.4-18.02-10.95,0-18.64,4.68-24.65,12.28l-13.34-13.25c8.92-9.72,21.03-17.14,40.37-17.14,24.56,0,37.28,12.81,37.28,36.22v62.28h-21.56v-17.93h-.53c-5.92,13.51-15.64,19.7-30.83,19.7-16.87,0-28.89-10.07-28.89-28.09ZM699.61,145.14c14.4,0,22.7-10.87,22.7-22.26v-6.27h-13.7c-12.81,0-23.59,3.45-23.59,15.55,0,8.04,5.48,12.99,14.58,12.99Z"></path><path class="cls-3" d="M768.16,63.96h21.64v20.76h.35c3.27-15.46,10.51-22.61,22.61-22.61,3.54,0,6.54.62,8.3,1.24v20.94c-2.38-.62-5.92-1.15-9.27-1.15-15.9,0-21.29,10.95-21.29,28.89v48.59h-22.35V63.96Z"></path><path class="cls-3" d="M828.91,147.43l13.43-13.43c7.68,8.48,15.99,11.13,26.15,11.13s17.5-2.83,17.5-10.78c0-8.75-8.22-11.13-22.09-14.75-14.93-3.89-30.48-10.16-30.48-29.24,0-17.93,13.78-28.27,36.66-28.27,14.93,0,27.21,4.59,35.86,13.16l-13.07,13.07c-6.54-6.71-14.58-9.19-22.44-9.19-9.28,0-15.37,3.18-15.37,10.25s7.87,9.45,20.94,12.9c15.28,3.89,31.71,9.19,31.71,30.48,0,18.73-15.1,29.59-38.86,29.59-16.87,0-30.57-4.77-39.93-14.93Z"></path><path class="cls-3" d="M921.73,198.85v-18.47c2.56.79,6.36,1.32,10.25,1.32,9.9,0,14.22-3.44,16.96-11.13l3.27-9.01-37.63-97.61h23.94l17.76,50.18c2.48,7.07,6.45,19.61,7.07,22.61.71-3.45,4.68-14.4,6.98-21.47l16.52-51.32h23.23l-41.26,112.46c-6.01,16.7-14.13,23.59-33.21,23.59-5.57,0-10.51-.53-13.87-1.15Z"></path><path class="cls-3" d="M1013.07,147.43l13.43-13.43c7.68,8.48,15.99,11.13,26.15,11.13s17.5-2.83,17.5-10.78c0-8.75-8.22-11.13-22.09-14.75-14.93-3.89-30.48-10.16-30.48-29.24,0-17.93,13.78-28.27,36.66-28.27,14.93,0,27.21,4.59,35.86,13.16l-13.07,13.07c-6.54-6.71-14.58-9.19-22.44-9.19-9.28,0-15.37,3.18-15.37,10.25s7.87,9.45,20.94,12.9c15.28,3.89,31.71,9.19,31.71,30.48,0,18.73-15.1,29.59-38.86,29.59-16.87,0-30.57-4.77-39.93-14.93Z"></path></g></svg>