<?xml version="1.0" encoding="UTF-8"?>
<svg id="Layer_1" data-name="Layer 1" xmlns="http://www.w3.org/2000/svg" viewBox="0 0 384.31 50">
  <defs>
    <style>
      .cls-1 {
        fill: #fff;
      }
    </style>
  </defs>
  <path class="cls-1" d="M111.62,39.06l-12.61-27.19h-10.4l17.09,34.21c.89,1.79,2.72,2.92,4.72,2.92h2.09c2,0,3.83-1.13,4.72-2.92l17.12-34.21h-9.39l-13.34,27.19ZM142.58,11.95h-3.68v31.85c0,2.91,2.36,5.28,5.28,5.28h3.68v-31.85c0-2.91-2.36-5.28-5.28-5.28ZM142.58,0h-3.68v4.12c0,2.91,2.36,5.28,5.28,5.28h3.68v-4.12C147.85,2.36,145.49,0,142.58,0ZM152.42,48.99h10.25c1.49,0,2.91-.63,3.91-1.73l6.19-6.81-6.23-6.8-14.11,15.35ZM73.65,11.87h-2.09c-2,0-3.83,1.13-4.72,2.92l-17.09,34.21h9.57l13.3-27.35,5.51,11.36h-6.29l-3.86,7.95h14.01l3.93,8.04h9.57l-17.12-34.21c-.89-1.79-2.72-2.92-4.72-2.92ZM33.9,14.67l-11.33,21.31L11.27,14.67c-.82-1.54-2.92-2.8-4.66-2.8H0v37.13h8.96v-20.63l9.32,16.61h8.61l9.32-16.61v20.63h8.96V11.87h-6.61c-1.95,0-3.74,1.08-4.66,2.8ZM330.99,38.15c-1.07.92-2.23,1.62-3.5,2.12-2.03.78-4,1.17-5.87,1.17-2.63,0-4.96-.43-6.99-1.3-2.06-.89-3.66-2.15-4.82-3.79-1.17-1.62-1.76-3.59-1.76-5.89s.59-4.3,1.76-5.92c1.17-1.65,2.76-2.9,4.82-3.77,2.03-.89,4.36-1.33,6.99-1.33,2.35,0,4.5.46,6.42,1.42,1.11.54,2.11,1.18,3,1.94,1.1.93,2.73.84,3.68-.24l3.86-4.41c-1.99-2.22-4.55-4-7.68-5.3-3.15-1.3-6.19-1.96-9.12-1.96-4.43,0-8.32.85-11.7,2.56-3.38,1.69-6.01,4.02-7.93,6.97-1.9,2.95-2.86,6.31-2.86,10.05s.96,7.08,2.9,10.03c1.94,2.97,4.64,5.28,8.07,6.99,3.43,1.69,7.4,2.54,11.88,2.54,2.95,0,5.78-.57,8.52-1.71,2.74-1.17,5.39-2.95,7.93-5.41l-3.88-4.43c-.96-1.09-2.62-1.24-3.72-.3ZM291.73,41.04h-19.88v-6.63h21.13v-5.31c0-1.46-1.18-2.64-2.64-2.64h-18.5v-1l-7.95-5.53v25.05c0,2.21,1.8,4.01,4.01,4.01h29.1v-2.67c0-2.91-2.36-5.28-5.28-5.28ZM291.73,11.87h-27.83v7.95h33.11v-2.67c0-2.91-2.36-5.28-5.28-5.28ZM381.67,11.87h-6.32v14.6h-23.24v-14.6h-6.32c-1.46,0-2.64,1.18-2.64,2.64v34.49h6.32c1.46,0,2.64-1.18,2.64-2.64v-11.94h23.24v11.94c0,1.46,1.18,2.64,2.64,2.64h6.32V14.5c0-1.46-1.18-2.64-2.64-2.64ZM185.16,13.4l-6.5,7.07,2.84,3.11,3.33,3.64,14.09-15.52h-9.88c-1.48,0-2.89.62-3.89,1.71ZM175.6,23.69h0s0,0,0,0l-9.26-10.12c-1-1.09-2.41-1.71-3.89-1.71h-10.01l16.98,18.67h0s15.83,17.28,15.83,17.28c.92.73,2.07,1.13,3.26,1.13h10.23l-16.93-18.48-6.19-6.76ZM218.18,19.82h16.09v26.54c0,1.46,1.18,2.64,2.64,2.64h3.68c1.46,0,2.64-1.18,2.64-2.64v-26.54h16.11v-7.95h-41.15v7.95Z"/>
</svg>