<?xml version="1.0" encoding="utf-8"?>
<!-- Generator: Adobe Illustrator 15.1.0, SVG Export Plug-In . SVG Version: 6.00 Build 0)  -->
<!DOCTYPE svg PUBLIC "-//W3C//DTD SVG 1.1//EN" "http://www.w3.org/Graphics/SVG/1.1/DTD/svg11.dtd">
<svg version="1.1" id="Layer_1" xmlns="http://www.w3.org/2000/svg" xmlns:xlink="http://www.w3.org/1999/xlink" x="0px" y="0px"
	 width="139px" height="39px" viewBox="-32 -8.5 139 39" enable-background="new -32 -8.5 139 39" xml:space="preserve">
<g>
	<path fill="#26262A" d="M-13.319,5.349c-0.604,0-1.208,0.086-1.812,0.216c-0.604,0.172-1.166,0.388-1.726,0.646l-0.863,0.433
		c-0.259,0.129-0.474,0.258-0.734,0.388c-0.345-0.519-0.862-0.95-1.424-1.251c-0.689-0.345-1.423-0.517-2.157-0.474
		c-0.906,0-1.768,0.129-2.631,0.431c-0.819,0.259-1.596,0.647-2.286,1.165l-0.604-0.95c-0.087-0.086-0.173-0.172-0.302-0.215
		c-0.129-0.043-0.216-0.086-0.345-0.086h-3.02c-0.217,0-0.389,0.086-0.562,0.215C-31.914,5.996-32,6.211-32,6.384v12.641
		c0,0.217,0.086,0.389,0.215,0.518c0.13,0.129,0.345,0.217,0.562,0.217h4.357c0.215,0,0.388-0.088,0.561-0.217
		c0.129-0.129,0.215-0.346,0.215-0.518v-8.371c0.086-0.086,0.216-0.129,0.302-0.215l0.475-0.216h-0.043
		c0.475-0.216,1.035-0.345,1.553-0.388c0.215,0,0.389,0.129,0.518,0.431c0.129,0.388,0.172,0.777,0.172,1.165v7.593
		c0,0.217,0.086,0.389,0.216,0.518c0.129,0.129,0.345,0.217,0.561,0.217h4.4c0.216,0,0.388-0.088,0.561-0.217
		c0.129-0.129,0.216-0.346,0.216-0.518v-8.414c0.086-0.043,0.215-0.129,0.346-0.172l0.473-0.216c0.259-0.13,0.518-0.216,0.776-0.302
		c0.259-0.043,0.476-0.086,0.734-0.086c0.216,0,0.388,0.129,0.518,0.431c0.129,0.388,0.173,0.777,0.173,1.165v7.593
		c0,0.217,0.086,0.389,0.216,0.518c0.129,0.129,0.345,0.217,0.561,0.217h4.357c0.215,0,0.388-0.088,0.56-0.217
		c0.129-0.129,0.216-0.346,0.216-0.518v-8.371C-8.358,7.117-9.998,5.349-13.319,5.349z"/>
	<path fill="#26262A" d="M8.381,16.738c-0.13-0.088-0.259-0.131-0.432-0.131l-0.173-0.129L7.604,16.35v-5.004
		c0-0.949-0.129-1.855-0.431-2.761c-0.259-0.734-0.69-1.38-1.294-1.855C5.231,6.211,4.498,5.867,3.678,5.694
		c-1.035-0.216-2.07-0.345-3.149-0.345c-0.733,0-1.424,0.043-2.114,0.216c-0.647,0.129-1.294,0.302-1.942,0.561
		c-0.518,0.215-1.035,0.431-1.51,0.689c-0.301,0.129-0.604,0.346-0.862,0.562c-0.086,0.086-0.173,0.215-0.173,0.345
		c-0.044,0.129-0.044,0.302,0,0.431l0.949,2.114c0.086,0.173,0.216,0.345,0.432,0.388c0.172,0.087,0.388,0.043,0.56-0.043
		c0.302-0.129,0.561-0.258,0.864-0.388c0.302-0.13,0.646-0.259,1.035-0.432c0.388-0.173,0.776-0.259,1.208-0.345
		c0.388-0.086,0.82-0.086,1.208-0.086c0.475-0.043,0.95,0.086,1.338,0.388c0.345,0.258,0.517,0.691,0.517,1.122l-2.07-0.086
		c-0.95-0.043-1.899,0.043-2.804,0.302c-0.82,0.216-1.553,0.561-2.287,0.992c-1.338,0.949-2.027,2.115-2.027,3.582
		c-0.043,1.25,0.474,2.416,1.424,3.234c0.906,0.777,2.2,1.209,3.882,1.209c0.863,0,1.727-0.129,2.545-0.344
		c0.821-0.26,1.596-0.563,2.374-0.951c0.086,0.086,0.172,0.172,0.259,0.258l0.302,0.26c0.604,0.52,1.38,0.777,2.157,0.734
		l2.589-2.158c0.13-0.086,0.216-0.215,0.259-0.389c0.043-0.131,0.043-0.303,0-0.432C8.64,16.953,8.554,16.822,8.381,16.738z
		 M2.211,15.572l-0.344,0.174l-0.432,0.172c-0.561,0.215-1.165,0.301-1.77,0.301c-0.819,0-1.25-0.215-1.25-0.604
		c0-0.818,1.25-1.207,3.753-1.207h0.086L2.211,15.572z"/>
	<path fill="#26262A" d="M14.334,5.521c-0.129-0.086-0.215-0.129-0.345-0.172c-0.086-0.043-0.215-0.043-0.301-0.043h-3.452
		c-0.172,0-0.345,0.086-0.431,0.215c-0.129,0.13-0.172,0.345-0.172,0.518v12.986c0,0.172,0.043,0.389,0.172,0.518
		c0.086,0.129,0.259,0.217,0.431,0.217h3.926c0.172,0,0.345-0.088,0.431-0.217c0.13-0.129,0.173-0.346,0.173-0.518V6.039
		c0-0.086-0.043-0.216-0.13-0.302C14.55,5.694,14.464,5.608,14.334,5.521z"/>
	<path fill="#26262A" d="M12.177,4.485c0.647,0.042,1.251-0.173,1.726-0.647c0.431-0.474,0.646-1.079,0.604-1.726
		c0.043-0.648-0.172-1.251-0.604-1.726c-0.863-0.949-2.373-0.992-3.322-0.129c-0.518,0.475-0.776,1.165-0.733,1.855
		c-0.087,1.208,0.777,2.243,1.984,2.329C11.961,4.485,12.091,4.485,12.177,4.485z"/>
	<path fill="#26262A" d="M21.151,0.56h-3.968c-0.174,0-0.346,0.086-0.432,0.215c-0.13,0.129-0.173,0.345-0.173,0.518v17.732
		c0,0.17,0.043,0.387,0.173,0.516c0.086,0.129,0.258,0.215,0.432,0.215h3.968c0.173,0,0.345-0.086,0.433-0.215
		c0.129-0.129,0.172-0.346,0.172-0.516V1.293c0-0.173-0.043-0.388-0.172-0.518C21.496,0.646,21.324,0.56,21.151,0.56z"/>
	<path fill="#26262A" d="M34.051,11.863l5.566-5.264c0.129-0.086,0.215-0.259,0.215-0.389c0.043-0.129,0-0.302-0.043-0.431
		c-0.043-0.129-0.129-0.259-0.258-0.302c-0.131-0.086-0.303-0.129-0.476-0.129h-5.048l-4.487,4.443V1.293
		c0-0.388-0.345-0.733-0.733-0.733H24.56c-0.216,0-0.389,0.086-0.561,0.215c-0.129,0.129-0.216,0.302-0.216,0.518v17.732
		c0,0.215,0.087,0.387,0.216,0.516c0.129,0.129,0.345,0.215,0.517,0.215h4.228c0.389,0,0.733-0.344,0.733-0.73v-4.531l4.616,5.047
		c0.086,0.086,0.173,0.129,0.259,0.172c0.086,0.043,0.172,0.088,0.258,0.088h4.531c0.302,0.041,0.604-0.131,0.69-0.432
		c0.129-0.258,0.043-0.605-0.172-0.822L34.051,11.863z"/>
	<path fill="#26262A" d="M43.584,4.485c0.647,0.042,1.252-0.173,1.725-0.647c0.435-0.474,0.649-1.079,0.606-1.726
		c0.043-0.648-0.172-1.251-0.606-1.726c-0.861-0.949-2.371-0.992-3.319-0.129c-0.518,0.475-0.775,1.165-0.733,1.855
		c-0.086,1.208,0.776,2.243,1.983,2.329C43.369,4.485,43.498,4.485,43.584,4.485z"/>
	<path fill="#26262A" d="M45.743,5.521c-0.131-0.086-0.217-0.129-0.346-0.172c-0.087-0.043-0.216-0.043-0.302-0.043h-3.451
		c-0.173,0-0.346,0.086-0.431,0.215c-0.13,0.13-0.173,0.345-0.173,0.518v12.986c0,0.172,0.043,0.389,0.173,0.518
		c0.085,0.129,0.258,0.217,0.431,0.217h3.925c0.174,0,0.346-0.088,0.432-0.217c0.129-0.129,0.175-0.346,0.175-0.518V6.039
		c0-0.086-0.046-0.216-0.131-0.302C46.001,5.694,45.872,5.608,45.743,5.521z"/>
	<path fill="#26262A" d="M58.342,9.792c0.171,0,0.388-0.086,0.517-0.217c0.129-0.129,0.215-0.345,0.215-0.561V6.383
		c0-0.215-0.086-0.388-0.215-0.518c-0.129-0.129-0.302-0.215-0.517-0.215h-2.764V1.896c0-0.215-0.087-0.431-0.259-0.56
		c-0.172-0.172-0.389-0.216-0.604-0.172l-4.099,0.689c-0.173,0-0.346,0.129-0.431,0.259c-0.13,0.129-0.173,0.302-0.173,0.475v3.02
		h-1.983c-0.389,0-0.733,0.345-0.689,0.733v2.632c0,0.216,0.085,0.388,0.215,0.561c0.129,0.129,0.303,0.217,0.475,0.217h1.983v6.255
		c0,1.594,0.388,2.717,1.209,3.365c0.819,0.646,2.071,0.99,3.84,0.99c0.344,0,0.646-0.041,0.99-0.086
		c0.345-0.043,0.692-0.129,1.037-0.215l0.904-0.217c0.219-0.041,0.435-0.129,0.606-0.215c0.13-0.043,0.215-0.129,0.301-0.258
		c0.087-0.129,0.13-0.258,0.13-0.391V16.09c0-0.258-0.086-0.475-0.301-0.646c-0.217-0.129-0.475-0.172-0.689-0.043
		c-0.176,0.086-0.435,0.172-0.778,0.303c-0.347,0.129-0.734,0.172-1.123,0.172c-0.173,0-0.346-0.086-0.432-0.215
		c-0.129-0.217-0.172-0.475-0.172-0.689V9.792H58.342z"/>
	
		<radialGradient id="SVGID_1_" cx="-191.3643" cy="228.7988" r="1.8547" gradientTransform="matrix(10.5124 0 0 -10.512 2098.1685 2416.1384)" gradientUnits="userSpaceOnUse">
		<stop  offset="0" style="stop-color:#FFFFFF"/>
		<stop  offset="1" style="stop-color:#CCCCCC"/>
	</radialGradient>
	<path fill="url(#SVGID_1_)" d="M86.47,30.5c10.768,0,19.499-8.73,19.499-19.5c0-10.77-8.731-19.5-19.499-19.5
		C75.699-8.5,66.968,0.23,66.968,11C66.968,21.77,75.699,30.5,86.47,30.5z"/>
	
		<linearGradient id="SVGID_2_" gradientUnits="userSpaceOnUse" x1="147.6279" y1="-152.9595" x2="108.627" y2="-152.9595" gradientTransform="matrix(1 0 0 -1 -41.6602 -141.96)">
		<stop  offset="0" style="stop-color:#FFFFFF;stop-opacity:0.7"/>
		<stop  offset="1" style="stop-color:#FFFFFF;stop-opacity:0"/>
	</linearGradient>
	<path fill="url(#SVGID_2_)" d="M86.47,30.5c10.768,0,19.499-8.73,19.499-19.5c0-10.77-8.731-19.5-19.499-19.5
		C75.699-8.5,66.968,0.23,66.968,11C66.968,21.77,75.699,30.5,86.47,30.5z"/>
	
		<linearGradient id="SVGID_3_" gradientUnits="userSpaceOnUse" x1="116.502" y1="-156.9761" x2="137.8107" y2="-154.7411" gradientTransform="matrix(1 0 0 -1 -41.6602 -141.96)">
		<stop  offset="0" style="stop-color:#575756"/>
		<stop  offset="1" style="stop-color:#575756;stop-opacity:0"/>
	</linearGradient>
	<path fill="url(#SVGID_3_)" d="M95.528,4.831c-0.044,0.043-0.044,0.043-0.086,0.086l-4.142,4.53
		c-0.862,0.818-2.071,1.164-3.235,0.862l-9.968-3.193l-0.56-0.172c-1.035-0.345-1.812,0.302-1.725,1.381l0.991,13.2
		c0,0.82,0.689,1.467,1.51,1.467c0.171,0,0.344-0.043,0.518-0.086l20.752-6.773c0.992-0.301,1.509-1.336,1.208-2.326
		c0-0.045-0.044-0.09-0.044-0.131L97.47,5.305C97.125,4.313,96.22,4.14,95.528,4.831z"/>
	
		<linearGradient id="SVGID_4_" gradientUnits="userSpaceOnUse" x1="115.7031" y1="-157.2676" x2="140.7657" y2="-148.143" gradientTransform="matrix(1 0 0 -1 -41.6602 -141.96)">
		<stop  offset="0.01" style="stop-color:#86191B"/>
		<stop  offset="0.71" style="stop-color:#D82128"/>
		<stop  offset="1" style="stop-color:#D44B28"/>
	</linearGradient>
	<path fill="url(#SVGID_4_)" d="M100.145,9.101l-4.918-8.196c-0.561-0.95-1.51-0.993-2.155-0.129
		c0.946-0.259,1.249,0.216,0.603,1.121L90.005,7.16c-0.775,0.992-2.025,1.553-3.277,1.423l-9.491-1.51
		c-0.733-0.129-0.991-0.345-0.82-0.604L74.562,6.21c-1.165-0.172-1.855,0.647-1.597,1.769l3.409,13.675
		c0.172,0.863,0.991,1.426,1.854,1.252c0.173-0.043,0.388-0.086,0.517-0.215l20.582-10.828c0.991-0.518,1.336-1.683,0.861-2.676
		C100.188,9.188,100.145,9.144,100.145,9.101z"/>
	
		<linearGradient id="SVGID_5_" gradientUnits="userSpaceOnUse" x1="116.8135" y1="-146.6143" x2="135.6582" y2="-146.6143" gradientTransform="matrix(1 0 0 -1 -41.6602 -141.96)">
		<stop  offset="0" style="stop-color:#86191B"/>
		<stop  offset="1" style="stop-color:#9B2022"/>
	</linearGradient>
	<path fill="url(#SVGID_5_)" d="M77.236,7.074l9.491,1.51c1.252,0.129,2.502-0.388,3.28-1.423l3.666-5.264
		c0.604-0.905,0.344-1.379-0.603-1.121c0,0.043-0.045,0.043-0.088,0.086L89.444,6.34c-0.732,1.036-1.982,1.596-3.233,1.51
		L75.167,6.297C74.994,6.556,76.503,6.987,77.236,7.074z"/>
	
		<linearGradient id="SVGID_6_" gradientUnits="userSpaceOnUse" x1="116.8311" y1="-144.9321" x2="134.4941" y2="-144.9321" gradientTransform="matrix(1 0 0 -1 -41.6602 -141.96)">
		<stop  offset="0" style="stop-color:#86191B"/>
		<stop  offset="1" style="stop-color:#D82128"/>
	</linearGradient>
	<path fill="url(#SVGID_6_)" d="M92.51,0.214c0.646-0.948,0.302-1.424-0.821-1.078L75.985,4.399
		c-1.121,0.388-1.079,0.82,0.087,0.993l9.49,1.51c1.252,0.129,2.503-0.388,3.278-1.424L92.51,0.214z"/>
</g>
</svg>
