<svg width="24" height="24" viewBox="0 0 24 24" fill="none" xmlns="http://www.w3.org/2000/svg">
<path d="M15.8964 18.45C17.2464 18.45 18.3464 17.35 18.3464 16C18.3464 14.65 17.2464 13.55 15.8964 13.55C14.5364 13.55 13.4464 14.65 13.4464 16C13.4464 17.35 14.5364 18.45 15.8964 18.45ZM21.0964 16.68L22.5764 17.84C22.7064 17.95 22.7464 18.13 22.6564 18.29L21.2564 20.71C21.1664 20.86 20.9964 20.92 20.8264 20.86L19.0864 20.16C18.7264 20.44 18.3264 20.67 17.9064 20.85L17.6364 22.7C17.6164 22.87 17.4664 23 17.2964 23H14.4964C14.3164 23 14.1764 22.87 14.1464 22.7L13.8864 20.85C13.4564 20.67 13.0664 20.44 12.7064 20.16L10.9564 20.86C10.8064 20.92 10.6164 20.86 10.5364 20.71L9.13636 18.29C9.04636 18.13 9.08636 17.95 9.21636 17.84L10.6964 16.68L10.6464 16L10.6964 15.31L9.21636 14.16C9.08636 14.05 9.04636 13.86 9.13636 13.71L10.5364 11.29C10.6164 11.13 10.8064 11.07 10.9564 11.13L12.7064 11.84C13.0664 11.56 13.4564 11.32 13.8864 11.15L14.1464 9.29C14.1764 9.13 14.3164 9 14.4964 9H17.2964C17.4664 9 17.6164 9.13 17.6364 9.29L17.9064 11.15C18.3264 11.32 18.7264 11.56 19.0864 11.84L20.8264 11.13C20.9964 11.07 21.1664 11.13 21.2564 11.29L22.6564 13.71C22.7464 13.86 22.7064 14.05 22.5764 14.16L21.0964 15.31L21.1464 16L21.0964 16.68ZM6.68636 8.07C7.55636 8.07 8.25636 7.37 8.25636 6.5C8.25636 5.63 7.55636 4.92 6.68636 4.92C6.26732 4.92 5.86544 5.08646 5.56913 5.38277C5.27283 5.67908 5.10636 6.08096 5.10636 6.5C5.10636 7.37 5.81636 8.07 6.68636 8.07ZM10.0264 6.94L10.9964 7.68C11.0664 7.75 11.0864 7.87 11.0264 7.97L10.1264 9.53C10.0764 9.63 9.95636 9.67 9.85636 9.63L8.73636 9.18L7.99636 9.62L7.80636 10.81C7.78636 10.92 7.69636 11 7.58636 11H5.78636C5.66636 11 5.57636 10.92 5.55636 10.81L5.39636 9.62L4.63636 9.18L3.49636 9.63C3.40636 9.67 3.29636 9.63 3.23636 9.53L2.33636 7.97C2.27636 7.87 2.30636 7.75 2.38636 7.68L3.33636 6.94L3.30636 6.5L3.33636 6.06L2.38636 5.32C2.30636 5.25 2.27636 5.13 2.33636 5.03L3.23636 3.47C3.29636 3.37 3.40636 3.33 3.49636 3.37L4.62636 3.82L5.39636 3.38L5.55636 2.19C5.57636 2.08 5.66636 2 5.78636 2H7.58636C7.69636 2 7.78636 2.08 7.80636 2.19L7.99636 3.38L8.73636 3.82L9.85636 3.37C9.95636 3.33 10.0764 3.37 10.1264 3.47L11.0264 5.03C11.0864 5.13 11.0664 5.25 10.9964 5.32L10.0264 6.06L10.0564 6.5L10.0264 6.94Z" fill="black"/>
</svg>
