<svg width="32" height="32" viewBox="0 0 32 32" fill="none" xmlns="http://www.w3.org/2000/svg">
<path d="M19.9993 22.6641V18.6641H23.9993V15.9974L29.3326 20.6641L23.9993 25.3307V22.6641H19.9993ZM22.666 23.9974V27.9974H18.666V30.6641L13.3326 25.9974L18.666 21.3307V23.9974H22.666ZM15.9993 10.6641C13.0526 10.6641 10.666 13.0641 10.666 15.9974C10.666 18.5441 12.466 20.7174 14.946 21.2241L21.3326 15.8107C21.2393 12.9441 18.8793 10.6641 15.9993 10.6641ZM15.9993 18.6641C14.5326 18.6641 13.3326 17.4774 13.3326 15.9974C13.3326 14.5174 14.5326 13.3307 15.9993 13.3307C17.466 13.3307 18.666 14.5307 18.666 15.9974C18.666 17.4641 17.4793 18.6641 15.9993 18.6641ZM28.8793 11.6374L26.2126 7.02406C26.0526 6.73073 25.706 6.61073 25.3993 6.73073L22.0793 8.06406C21.3993 7.5174 20.666 7.0774 19.826 6.73073L19.3326 3.22406C19.2793 2.90406 18.9993 2.66406 18.666 2.66406H13.3326C12.9993 2.66406 12.7193 2.90406 12.666 3.22406L12.1726 6.7574C11.3326 7.10406 10.6126 7.54406 9.9193 8.09073L6.66597 6.73073C6.3593 6.61073 5.9993 6.73073 5.85263 7.02406L3.18597 11.6374C3.01263 11.9174 3.0793 12.2907 3.33263 12.4907L6.09263 14.6641L5.9993 15.9974L6.09263 17.3307L3.2793 19.5041C3.01263 19.7041 2.94597 20.0774 3.1193 20.3574L5.78597 24.9707C5.93263 25.3307 6.3193 25.4774 6.66597 25.3307L9.9993 23.9974C10.3193 24.2507 10.666 24.4907 11.0126 24.7041L13.2126 22.8374C12.186 22.3974 11.2793 21.7441 10.546 20.9041L7.33263 22.2374L6.30597 20.5041L9.06597 18.3974C8.53263 16.8374 8.53263 15.1574 9.06597 13.5974L6.25263 11.5307L7.25263 9.7974L10.466 11.1307C11.506 9.93073 12.906 9.09073 14.466 8.7574L14.9993 5.33073H16.9993L17.4926 8.82406C19.0526 9.14406 20.4526 9.9974 21.4926 11.1841L24.706 9.85073L25.706 11.5841L22.9326 13.5974C23.0526 13.9441 23.146 14.3041 23.1993 14.6641H25.866L28.666 12.4907C28.9593 12.3041 29.0393 11.9307 28.8793 11.6374ZM15.9993 10.6641C13.0526 10.6641 10.666 13.0641 10.666 15.9974C10.666 18.5441 12.466 20.7174 14.946 21.2241L21.3326 15.8107C21.2393 12.9441 18.8793 10.6641 15.9993 10.6641ZM15.9993 18.6641C14.5326 18.6641 13.3326 17.4774 13.3326 15.9974C13.3326 14.5174 14.5326 13.3307 15.9993 13.3307C17.466 13.3307 18.666 14.5307 18.666 15.9974C18.666 17.4641 17.4793 18.6641 15.9993 18.6641ZM15.9993 10.6641C13.0526 10.6641 10.666 13.0641 10.666 15.9974C10.666 18.5441 12.466 20.7174 14.946 21.2241L21.3326 15.8107C21.2393 12.9441 18.8793 10.6641 15.9993 10.6641ZM15.9993 18.6641C14.5326 18.6641 13.3326 17.4774 13.3326 15.9974C13.3326 14.5174 14.5326 13.3307 15.9993 13.3307C17.466 13.3307 18.666 14.5307 18.666 15.9974C18.666 17.4641 17.4793 18.6641 15.9993 18.6641Z" fill="black"/>
</svg>
