<svg width="32" height="32" viewBox="0 0 32 32" fill="none" xmlns="http://www.w3.org/2000/svg">
<path d="M16 1.33594C9.33333 1.33594 4 6.66927 4 13.3359V22.6693C4 23.7301 4.42143 24.7476 5.17157 25.4977C5.92172 26.2478 6.93913 26.6693 8 26.6693H12V16.0026H6.66667V13.3359C6.66667 10.8606 7.65 8.48661 9.40034 6.73627C11.1507 4.98593 13.5246 4.0026 16 4.0026C18.4754 4.0026 20.8493 4.98593 22.5997 6.73627C24.35 8.48661 25.3333 10.8606 25.3333 13.3359V16.0026H20V26.6693H24C25.0609 26.6693 26.0783 26.2478 26.8284 25.4977C27.5786 24.7476 28 23.7301 28 22.6693V13.3359C28 6.66927 22.6267 1.33594 16 1.33594Z" fill="black"/>
</svg>
